<svg xmlns="http://www.w3.org/2000/svg" width="96" height="96" viewBox="0 0 96 96">
  <rect width="96" height="96" rx="20" fill="#003787" />
  <g transform="translate(16.99 14) scale(0.9067)" fill="#ffffff" fill-rule="evenodd">
    <path d="M57.6175 6.34727C60.0684 6.34727 62.0618 8.30145 62.0618 10.7042C62.0618 13.107 60.0684 15.0611 57.6175 15.0611L23.0137 15.0853V21.4326L57.6175 21.4084C63.5764 21.4084 68.4062 16.6149 68.4062 10.7042C68.4062 4.79355 63.5764 0 57.6175 0C51.6586 0 46.8288 4.79355 46.8288 10.7042V14.1218L53.1732 14.1159V14.1156V10.7042C53.1732 8.30145 55.1665 6.34727 57.6175 6.34727ZM26.5083 6.36908C28.9591 6.36908 30.9525 8.32337 30.9525 10.7262L30.9797 14.1288H37.2938L37.2998 10.7262C37.2998 4.81529 32.47 0.0214844 26.5112 0.0214844C20.5524 0.0214844 15.7227 4.81529 15.7227 10.7262L15.7286 24.6318L22.0219 24.6199L22.064 10.7262C22.064 8.32337 24.0573 6.36908 26.5083 6.36908Z" />
    <path d="M23.0137 53.5664V59.9137L57.6175 59.9379C60.0684 59.9379 62.0618 61.8921 62.0618 64.2948C62.0618 66.6976 60.0684 68.6518 57.6175 68.6518C55.1665 68.6518 53.1732 66.6976 53.1732 64.2948V60.8802H46.8347L46.8288 64.2948C46.8288 70.2055 51.6586 74.999 57.6175 74.999C63.5764 74.999 68.4062 70.2055 68.4062 64.2948C68.4062 58.3842 63.5764 53.5906 57.6175 53.5906L23.0137 53.5664ZM37.3036 60.8811H30.9894L30.9622 64.2926C30.9622 66.6954 28.9689 68.6496 26.518 68.6496C24.0671 68.6496 22.0738 66.6954 22.0738 64.2926L22.0316 45.4971H15.7354L15.7384 45.5L15.7324 64.2926C15.7324 70.2034 20.5622 74.9971 26.521 74.9971C32.4798 74.9971 37.3096 70.2034 37.3096 64.2926L37.3036 60.8811Z" />
    <path d="M53.2208 44.5527C57.1322 44.5527 60.3027 41.406 60.3027 37.5278C60.3027 33.6495 57.1322 30.5029 53.2208 30.5029L11.0238 30.4817C8.45842 30.4817 6.36857 28.5245 6.36857 26.0072C6.36857 23.49 8.45812 21.4395 11.0238 21.4395H14.7756V15.0862L11.0238 15.0742C4.94748 15.0742 0.0212266 19.8831 0.0212266 25.911C0.0212266 31.9389 4.94718 36.8261 11.0238 36.8261L53.2328 36.8473V36.8503C53.6392 36.8503 53.9673 37.1545 53.9673 37.5278C53.9673 37.901 53.6392 38.2053 53.2328 38.2053L11.0025 38.1904C4.92631 38.1904 0 43.0772 0 49.1054C0 55.1336 4.92601 60.0205 11.0025 60.0205L14.7603 60.0086V53.5859H11.0025C8.4372 53.5859 6.34735 51.5354 6.34735 49.0182C6.34735 46.5009 8.4369 44.5377 11.0025 44.5377L53.2208 44.5527Z" />
  </g>
</svg>
